<svg xmlns="http://www.w3.org/2000/svg" viewBox="0 0 506.18 620.01"><defs><style>.cls-1{fill:#96d4e3;}</style></defs><title>資產 2xxxhdpi</title><g id="圖層_2" data-name="圖層 2"><g id="圖層_3" data-name="圖層 3"><path class="cls-1" d="M319.32,376l-.76-11.37-5.3,1.52.76-6.83-8.34-4.54V343.39l-12.88,3S286,357,277.64,355.52s-9.1-7.58-7.58-12.13,3.79-10.46,3.79-10.46H261a17.08,17.08,0,0,1-2.27-16.83s-18.19,12.44-20.46,16.83,3,20.31,0,26.37-15.16,18.95-20.47,18.95h-9.09s-6.82,42.44-18.95,50-17.43,12.89-29.56,17.43-43.2,44-59.11,44H81.34s-53.81,45.48-60.63,60.63l-6.82,15.16v6.07H2.52s-4.55,3.78,0,3.78H13.89l-5.31,4.55s-6.31-1.51-8.08,3,1.26-1.51,7.33,7.58,0,11.37,12.88,12.13,9.85.76,16.67-4.55,10.62-3.79,12.89,1.52-1.52,9.09,8.34,8.33,12.12-5.11,15.91.1-.76,11.27,4.55,11.27H99.53c3,0-11.37-5.3,9.1,0s42.44-18.94,53.81-33.34h13.64l-2.27-12.13s6.06-8.34,8.33-12.89-1.51-8.33,4.55-13.64a46.39,46.39,0,0,0,9.09-10.61s-2.27-25,6.83-33.35,47-24.25,62.14-21.22,10.61-.75,11.37-6.06-9.09,2.27-13.64-4.55-3-17.43,0-25.77c13.73-5.3,25.77-6.82,28.8-25,0-9.85,6.82-3.79,11.37-12.12s19.7-22,21.22-28.8S319.32,376,319.32,376Z"/><path class="cls-1" d="M506.18,177.33s-4.55-7.59-18.95-8.35S469,184.14,460,191.72s-50-17.43-50-17.43S397,176.56,397,167.46s-5.3-37.89-5.3-37.89-8.34,1.52-9-1.52,0-9.85,0-9.85-10.68-6.06-7.65,1.52a17.66,17.66,0,0,1,0,13.64s6.82,7.58,7.58,12.13-5.3,4.54-9.09,4.54-3.79-5.3-4.33-11.37-19.17-3-19.92-10.61-1.52-17.43-.76-25-11.37-6.82-14.4-15.15,3.79-7.58,6.82-10.62-3.79-9.85-6.82-12.88-3-12.88-3-12.88a65.57,65.57,0,0,1-7.58,3C319,56.05,319,49.23,316,42.41s-25.77-3-31.83-7.58-17.44-28-23.5-33.34-3.79,5.3-3.79,5.3l25,33.35V51.51c39.41,41.15,69,112.92,69,112.92l4.55,31.08h-9.1s.76,11.36-2.27,30.31-12.88,9.1-25.77,15.16-12.88,18.19-9.85,24.25S321.25,263,326.8,269s9.61,9.1,22.5,10.61S366,285.7,369,309.19s-26.53,45.47-26.53,45.47l11.37,3.79,11.37-.75.76,12.12a196.91,196.91,0,0,1,25-15.16c13.64-6.82,15.16-20.46,15.92-22.58s18.18-21.37,18.18-21.37,20.47-35.62,17.44-36.38-15.92-12.89-4.55-23.5S469,240.22,469,240.22s3.79,7.58,5.31,11.37,6.06-1.52,6.06-1.52,0-11.36.76-25.76c15.91.75,15.16-19.71,14.4-29.56S506.18,177.33,506.18,177.33Z"/></g></g></svg>